<svg xmlns="http://www.w3.org/2000/svg" viewBox="0 0 128 128">
  <defs>
    <linearGradient id="phantomGrad" x1="0%" y1="0%" x2="100%" y2="100%">
      <stop offset="0%" style="stop-color:#534BB1"/>
      <stop offset="100%" style="stop-color:#551BF9"/>
    </linearGradient>
  </defs>
  <rect width="128" height="128" rx="26" fill="url(#phantomGrad)"/>
  <path fill="#FFF" d="M110.584 64.914H96.556c0-23.766-19.261-43.04-43.01-43.04-22.892 0-41.607 17.892-43.01 40.407-.076.91-.115 1.827-.115 2.754 0 30.062 24.359 54.437 54.403 54.437 17.842 0 33.653-8.59 43.546-21.841h-14.29c-7.575 8.064-18.364 13.103-30.416 13.103-22.892 0-41.453-18.574-41.453-41.483 0-.72.019-1.435.055-2.146.813-21.858 17.614-39.337 39.28-39.337 22.892 0 41.453 18.574 41.453 41.483 0 .72-.019 1.435-.055 2.146h8.64v-6.483zM56.986 59.98c0-4.328 3.499-7.835 7.815-7.835 4.316 0 7.815 3.507 7.815 7.835 0 4.328-3.499 7.835-7.815 7.835-4.316 0-7.815-3.507-7.815-7.835zm30.456 0c0-4.328 3.499-7.835 7.815-7.835 4.316 0 7.815 3.507 7.815 7.835 0 4.328-3.499 7.835-7.815 7.835-4.316 0-7.815-3.507-7.815-7.835z"/>
</svg>
