<svg xmlns="http://www.w3.org/2000/svg" viewBox="0 0 80 80">
  <defs>
    <linearGradient id="rabbyGrad" x1="0%" y1="0%" x2="100%" y2="100%">
      <stop offset="0%" style="stop-color:#8697FF"/>
      <stop offset="100%" style="stop-color:#7B5BFE"/>
    </linearGradient>
  </defs>
  <rect width="80" height="80" rx="16" fill="url(#rabbyGrad)"/>
  <path fill="#FFF" d="M57.5 28c-3.3-4.4-8.9-7-15-7-10.5 0-19 8.5-19 19 0 2.1.3 4.1 1 6-1.5 2.5-2 5.5-1.5 8.5.8 4.5 4 8.2 8.5 9.5 3 .8 6 .5 8.5-.5 2 .7 4.1 1 6.5 1 10.5 0 19-8.5 19-19 0-7-3.7-13.1-9-16.5zM44 55c-2.2 0-4-.9-5.4-2.3-.8.5-1.7.8-2.6.8-2.8 0-5-2.2-5-5 0-.5.1-1 .2-1.5C29.8 45.8 29 43.5 29 41c0-7.7 6.3-14 14-14 4.6 0 8.7 2.2 11.2 5.7.5-.1 1-.2 1.5-.2 2.8 0 5 2.2 5 5 0 2-1.2 3.8-2.9 4.6.2.9.2 1.9.2 2.9 0 5.5-3.2 10.3-7.8 12.6-.8.2-1.7.4-2.7.4h-3.5z"/>
  <ellipse fill="#7B5BFE" cx="38" cy="39" rx="3" ry="4"/>
  <ellipse fill="#7B5BFE" cx="50" cy="39" rx="3" ry="4"/>
</svg>
