<svg xmlns="http://www.w3.org/2000/svg" viewBox="0 0 40 40">
  <defs>
    <linearGradient id="trustGrad" x1="0%" y1="0%" x2="100%" y2="100%">
      <stop offset="0%" style="stop-color:#0500FF"/>
      <stop offset="100%" style="stop-color:#33CCFF"/>
    </linearGradient>
  </defs>
  <path fill="url(#trustGrad)" d="M20 4c8.284 0 15.004 6.716 15.004 15s-6.72 15-15.004 15S4.996 27.284 4.996 19 11.716 4 20 4zm0 4.5c-5.8 0-10.5 4.7-10.5 10.5s4.7 10.5 10.5 10.5 10.5-4.7 10.5-10.5S25.8 8.5 20 8.5zm0 2.4c2.1 0 4 .9 5.4 2.2v.6c0 3.8-2.1 7.4-5.4 9.5-3.3-2.1-5.4-5.7-5.4-9.5v-.6c1.4-1.3 3.3-2.2 5.4-2.2z"/>
</svg>
